<mxfile host="app.diagrams.net" agent="Mozilla/5.0 (Windows NT 10.0; Win64; x64) AppleWebKit/537.36 (KHTML, like Gecko) Chrome/139.0.0.0 Safari/537.36 Edg/139.0.0.0" version="28.1.1">
  <diagram id="prtHgNgQTEPvFCAcTncT" name="Page-1">
    <mxGraphModel dx="1205" dy="666" grid="1" gridSize="10" guides="1" tooltips="1" connect="1" arrows="1" fold="1" page="1" pageScale="1" pageWidth="827" pageHeight="1169" math="0" shadow="0">
      <root>
        <mxCell id="0" />
        <mxCell id="1" parent="0" />
        <mxCell id="w7biPJrf0hh5INIUFV1A-1" value="智能门户" style="swimlane;childLayout=stackLayout;resizeParent=1;resizeParentMax=0;startSize=20;html=1;" vertex="1" parent="1">
          <mxGeometry x="150.00000000000045" y="70" width="1050" height="480" as="geometry" />
        </mxCell>
        <mxCell id="w7biPJrf0hh5INIUFV1A-2" value="前端页面" style="swimlane;startSize=20;html=1;" vertex="1" parent="w7biPJrf0hh5INIUFV1A-1">
          <mxGeometry y="20" width="360" height="460" as="geometry" />
        </mxCell>
        <mxCell id="w7biPJrf0hh5INIUFV1A-26" style="edgeStyle=orthogonalEdgeStyle;rounded=0;orthogonalLoop=1;jettySize=auto;html=1;exitX=0.5;exitY=1;exitDx=0;exitDy=0;entryX=0.5;entryY=0;entryDx=0;entryDy=0;" edge="1" parent="w7biPJrf0hh5INIUFV1A-2" source="w7biPJrf0hh5INIUFV1A-17" target="w7biPJrf0hh5INIUFV1A-19">
          <mxGeometry relative="1" as="geometry" />
        </mxCell>
        <mxCell id="w7biPJrf0hh5INIUFV1A-17" value="获取JSON-schema" style="rounded=0;whiteSpace=wrap;html=1;" vertex="1" parent="w7biPJrf0hh5INIUFV1A-2">
          <mxGeometry x="29.999999999999545" y="50" width="120" height="60" as="geometry" />
        </mxCell>
        <mxCell id="w7biPJrf0hh5INIUFV1A-34" style="edgeStyle=orthogonalEdgeStyle;rounded=0;orthogonalLoop=1;jettySize=auto;html=1;entryX=0;entryY=0.5;entryDx=0;entryDy=0;" edge="1" parent="w7biPJrf0hh5INIUFV1A-2" source="w7biPJrf0hh5INIUFV1A-19" target="w7biPJrf0hh5INIUFV1A-32">
          <mxGeometry relative="1" as="geometry" />
        </mxCell>
        <mxCell id="w7biPJrf0hh5INIUFV1A-19" value="schema解析" style="rounded=0;whiteSpace=wrap;html=1;" vertex="1" parent="w7biPJrf0hh5INIUFV1A-2">
          <mxGeometry x="29.999999999999545" y="130" width="120" height="60" as="geometry" />
        </mxCell>
        <mxCell id="w7biPJrf0hh5INIUFV1A-30" style="edgeStyle=orthogonalEdgeStyle;rounded=0;orthogonalLoop=1;jettySize=auto;html=1;entryX=0;entryY=0.5;entryDx=0;entryDy=0;" edge="1" parent="w7biPJrf0hh5INIUFV1A-2" source="w7biPJrf0hh5INIUFV1A-21" target="w7biPJrf0hh5INIUFV1A-23">
          <mxGeometry relative="1" as="geometry" />
        </mxCell>
        <mxCell id="w7biPJrf0hh5INIUFV1A-31" value="是" style="edgeLabel;html=1;align=center;verticalAlign=middle;resizable=0;points=[];" vertex="1" connectable="0" parent="w7biPJrf0hh5INIUFV1A-30">
          <mxGeometry x="-0.4463" y="-1" relative="1" as="geometry">
            <mxPoint as="offset" />
          </mxGeometry>
        </mxCell>
        <mxCell id="w7biPJrf0hh5INIUFV1A-21" value="是否有数据源" style="rhombus;whiteSpace=wrap;html=1;" vertex="1" parent="w7biPJrf0hh5INIUFV1A-2">
          <mxGeometry x="30" y="230" width="120" height="80" as="geometry" />
        </mxCell>
        <mxCell id="w7biPJrf0hh5INIUFV1A-24" value="直接渲染栏目" style="rounded=0;whiteSpace=wrap;html=1;" vertex="1" parent="w7biPJrf0hh5INIUFV1A-2">
          <mxGeometry x="30" y="360" width="130" height="60" as="geometry" />
        </mxCell>
        <mxCell id="w7biPJrf0hh5INIUFV1A-23" value="API调用" style="rounded=0;whiteSpace=wrap;html=1;" vertex="1" parent="w7biPJrf0hh5INIUFV1A-2">
          <mxGeometry x="209" y="240" width="110" height="60" as="geometry" />
        </mxCell>
        <mxCell id="w7biPJrf0hh5INIUFV1A-28" style="edgeStyle=orthogonalEdgeStyle;rounded=0;orthogonalLoop=1;jettySize=auto;html=1;entryX=0.433;entryY=-0.011;entryDx=0;entryDy=0;entryPerimeter=0;" edge="1" parent="w7biPJrf0hh5INIUFV1A-2" source="w7biPJrf0hh5INIUFV1A-21" target="w7biPJrf0hh5INIUFV1A-24">
          <mxGeometry relative="1" as="geometry" />
        </mxCell>
        <mxCell id="w7biPJrf0hh5INIUFV1A-29" value="否" style="edgeLabel;html=1;align=center;verticalAlign=middle;resizable=0;points=[];" vertex="1" connectable="0" parent="w7biPJrf0hh5INIUFV1A-28">
          <mxGeometry x="-0.2207" y="-4" relative="1" as="geometry">
            <mxPoint as="offset" />
          </mxGeometry>
        </mxCell>
        <mxCell id="w7biPJrf0hh5INIUFV1A-33" style="edgeStyle=orthogonalEdgeStyle;rounded=0;orthogonalLoop=1;jettySize=auto;html=1;" edge="1" parent="w7biPJrf0hh5INIUFV1A-2" source="w7biPJrf0hh5INIUFV1A-32" target="w7biPJrf0hh5INIUFV1A-21">
          <mxGeometry relative="1" as="geometry">
            <Array as="points">
              <mxPoint x="250" y="210" />
              <mxPoint x="90" y="210" />
            </Array>
          </mxGeometry>
        </mxCell>
        <mxCell id="w7biPJrf0hh5INIUFV1A-32" value="渲染布局与主题，分析栏目数据源" style="rounded=0;whiteSpace=wrap;html=1;" vertex="1" parent="w7biPJrf0hh5INIUFV1A-2">
          <mxGeometry x="189.99999999999955" y="130" width="120" height="60" as="geometry" />
        </mxCell>
        <mxCell id="w7biPJrf0hh5INIUFV1A-3" value="门户服务" style="swimlane;startSize=20;html=1;" vertex="1" parent="w7biPJrf0hh5INIUFV1A-1">
          <mxGeometry x="360" y="20" width="370" height="460" as="geometry" />
        </mxCell>
        <mxCell id="w7biPJrf0hh5INIUFV1A-14" value="" style="rounded=0;whiteSpace=wrap;html=1;" vertex="1" parent="w7biPJrf0hh5INIUFV1A-3">
          <mxGeometry x="39.999999999999545" y="40" width="120" height="60" as="geometry" />
        </mxCell>
        <mxCell id="w7biPJrf0hh5INIUFV1A-4" value="栏目" style="swimlane;startSize=20;html=1;" vertex="1" parent="w7biPJrf0hh5INIUFV1A-1">
          <mxGeometry x="730" y="20" width="320" height="460" as="geometry" />
        </mxCell>
        <mxCell id="w7biPJrf0hh5INIUFV1A-18" style="edgeStyle=orthogonalEdgeStyle;rounded=0;orthogonalLoop=1;jettySize=auto;html=1;entryX=0;entryY=0.5;entryDx=0;entryDy=0;" edge="1" parent="1" source="w7biPJrf0hh5INIUFV1A-11" target="w7biPJrf0hh5INIUFV1A-17">
          <mxGeometry relative="1" as="geometry" />
        </mxCell>
        <mxCell id="w7biPJrf0hh5INIUFV1A-11" value="" style="image;points=[];aspect=fixed;html=1;align=center;shadow=0;dashed=0;image=img/lib/allied_telesis/computer_and_terminals/Personal_Computer.svg;" vertex="1" parent="1">
          <mxGeometry x="30" y="230" width="45.6" height="61.800000000000004" as="geometry" />
        </mxCell>
      </root>
    </mxGraphModel>
  </diagram>
</mxfile>
